<?xml version='1.0' encoding='iso-8859-1'?>
<!-- Uploaded to: SVG Repo, www.svgrepo.com, Generator: SVG Repo Mixer Tools -->
<svg fill="#000000" height="800px" width="800px" version="1.1" xmlns="http://www.w3.org/2000/svg" viewBox="0 0 470 470" xmlns:xlink="http://www.w3.org/1999/xlink" enable-background="new 0 0 470 470">
  <g>
    <path d="m462.5,136.217c-12.674,0-24.3-5.896-31.896-16.174-1.414-1.914-3.651-3.043-6.031-3.043-2.389,0.002-4.628,1.136-6.04,3.054-7.449,10.121-19.357,16.163-31.854,16.163-12.488,0-24.412-6.046-31.896-16.174-1.414-1.914-3.652-3.043-6.032-3.043s-4.618,1.129-6.032,3.043c-7.483,10.128-19.406,16.174-31.895,16.174-12.651,0-24.265-5.896-31.863-16.175-1.414-1.913-3.652-3.042-6.031-3.042-2.38,0-4.617,1.129-6.031,3.043-7.485,10.127-19.409,16.174-31.896,16.174-12.497,0-24.405-6.042-31.854-16.163-1.41-1.916-3.646-3.049-6.025-3.054-2.389,0-4.622,1.124-6.037,3.03-7.634,10.287-19.263,16.187-31.905,16.187-12.496,0-24.404-6.042-31.854-16.163-1.412-1.918-3.651-3.052-6.033-3.054-2.386,0-4.625,1.129-6.039,3.043-7.483,10.128-19.421,16.174-31.933,16.174-12.464,0-24.375-6.047-31.862-16.175-1.415-1.914-3.652-3.042-6.032-3.042-2.379,0-4.617,1.13-6.031,3.043-7.595,10.278-19.221,16.174-31.896,16.174-4.143,0-7.5,3.357-7.5,7.5s3.357,7.5 7.5,7.5c14.17,0 27.804-5.631 37.928-15.386 10.123,9.755 23.745,15.386 37.894,15.386 14.187,0 27.829-5.627 37.956-15.379 10.102,9.751 23.725,15.379 37.902,15.379 14.375,0 27.786-5.511 37.932-15.366 10.101,9.743 23.719,15.366 37.891,15.366 14.16,0 27.784-5.623 37.906-15.366 10.123,9.855 23.528,15.366 37.916,15.366 14.17,0 27.803-5.63 37.927-15.386 10.124,9.756 23.758,15.386 37.928,15.386 14.178,0 27.801-5.627 37.902-15.378 10.124,9.751 23.753,15.378 37.919,15.378 4.143,0 7.5-3.357 7.5-7.5s-3.36-7.5-7.503-7.5z"/>
    <path d="m174.048,112.73c4.143,0 7.5-3.357 7.5-7.5v-3.82c0-14.563 11.848-26.41 26.411-26.41h54.082c14.563,0 26.411,11.848 26.411,26.41v3.771c0,4.143 3.357,7.5 7.5,7.5s7.5-3.357 7.5-7.5v-3.771c0-22.834-18.577-41.41-41.411-41.41h-2.5v-22.5c0-4.143-3.357-7.5-7.5-7.5s-7.5,3.357-7.5,7.5v22.5h-19.082v-32.5c0-15.163-12.337-27.5-27.5-27.5h-13.911c-4.143,0-7.5,3.357-7.5,7.5s3.357,7.5 7.5,7.5h13.911c6.893,0 12.5,5.607 12.5,12.5v32.5h-2.5c-22.834,0-41.411,18.576-41.411,41.41v3.82c0,4.143 3.357,7.5 7.5,7.5z"/>
    <path d="M419.517,313.908h-36.113c-2.702-54.088-34.464-100.645-79.951-124.355v-17.309c0-4.143-3.357-7.5-7.5-7.5   s-7.5,3.357-7.5,7.5v10.523c-16.595-6.42-34.618-9.951-53.452-9.951s-36.857,3.531-53.452,9.951v-10.523c0-4.143-3.357-7.5-7.5-7.5   s-7.5,3.357-7.5,7.5v17.309c-45.487,23.71-77.249,70.267-79.951,124.355H50.483c-4.143,0-7.5,3.357-7.5,7.5s3.357,7.5,7.5,7.5   h36.113C90.517,407.371,155.581,470,235,470c79.418,0,144.483-62.629,148.403-141.092h36.113c4.143,0,7.5-3.357,7.5-7.5   S423.659,313.908,419.517,313.908z M235,455c-73.663,0-133.592-59.929-133.592-133.592S161.337,187.816,235,187.816   s133.592,59.929,133.592,133.592S308.663,455,235,455z"/>
    <path d="m235,229.332c4.407,0 7.992-3.585 7.992-7.992s-3.585-7.992-7.992-7.992-7.992,3.585-7.992,7.992 3.585,7.992 7.992,7.992z"/>
    <path d="m164.241,258.642c2.135,0 4.142-0.832 5.651-2.341 3.115-3.116 3.116-8.187-0.014-11.316-1.509-1.501-3.511-2.327-5.638-2.327-2.128,0-4.13,0.826-5.666,2.354-3.093,3.108-3.092,8.167 0.015,11.289 1.511,1.51 3.517,2.341 5.652,2.341z"/>
    <path d="m134.932,313.416c-4.407,0-7.992,3.585-7.992,7.992s3.585,7.992 7.992,7.992 7.992-3.585 7.992-7.992-3.585-7.992-7.992-7.992z"/>
    <path d="m164.241,384.175c-2.135,0-4.142,0.831-5.665,2.354-3.094,3.109-3.094,8.167 0.027,11.304 1.508,1.5 3.51,2.326 5.638,2.326 2.127,0 4.129-0.826 5.651-2.34 3.116-3.116 3.116-8.188 0-11.304-1.509-1.508-3.516-2.34-5.651-2.34z"/>
    <path d="m235,412.813c-4.411,0-8,3.589-8,8s3.589,8 8,8 8-3.589 8-8-3.589-8-8-8z"/>
    <path d="m305.76,384.175c-2.136,0-4.143,0.832-5.652,2.341-3.116,3.116-3.116,8.188 0.014,11.316 1.509,1.501 3.511,2.327 5.639,2.327 2.127,0 4.129-0.826 5.664-2.354 3.094-3.109 3.094-8.167-0.013-11.29-1.511-1.508-3.517-2.34-5.652-2.34z"/>
    <path d="m327.076,321.408c0,4.407 3.585,7.992 7.992,7.992s7.992-3.585 7.992-7.992-3.585-7.992-7.992-7.992-7.992,3.585-7.992,7.992z"/>
    <path d="m305.76,258.642c2.135,0 4.142-0.832 5.664-2.354 3.093-3.108 3.094-8.167-0.026-11.303-1.509-1.501-3.511-2.327-5.638-2.327-2.128,0-4.13,0.826-5.652,2.341-3.116,3.116-3.115,8.187 0,11.303 1.509,1.508 3.516,2.34 5.652,2.34z"/>
    <path d="m305.52,329.078c-4.056-0.882-8.042,1.694-8.918,5.742-6.229,28.76-32.137,49.634-61.602,49.634-34.764,0-63.046-28.282-63.046-63.046s28.282-63.046 63.046-63.046c29.465,0 55.372,20.874 61.602,49.634 0.877,4.048 4.865,6.627 8.918,5.742 4.048-0.877 6.619-4.869 5.742-8.918-3.716-17.153-13.288-32.745-26.952-43.902-13.866-11.321-31.378-17.556-49.31-17.556-43.034,0-78.046,35.012-78.046,78.046s35.012,78.046 78.046,78.046c17.932,0 35.443-6.234 49.31-17.556 13.664-11.157 23.236-26.749 26.952-43.902 0.877-4.049-1.695-8.041-5.742-8.918z"/>
  </g>
</svg>