<?xml version="1.0" encoding="iso-8859-1"?>
<!-- Uploaded to: SVG Repo, www.svgrepo.com, Generator: SVG Repo Mixer Tools -->
<svg fill="#000000" height="800px" width="800px" version="1.1" id="Layer_1" xmlns="http://www.w3.org/2000/svg" xmlns:xlink="http://www.w3.org/1999/xlink" 
	 viewBox="0 0 512 512" xml:space="preserve">
<g>
	<g>
		<path d="M441.108,158.308c-5.547-2.483-11.888-2.483-17.437,0c-9.23,4.133-55.282,26.554-55.282,62.137
			c0,4.803,0.557,9.572,1.618,14.222h-42.894v-44.924c3.672-1.836,6.801-4.72,8.927-8.395c8.114-14.023,12.403-30.012,12.403-46.24
			c0-23.515-14.931-46.248-44.378-67.563c-9.718-7.034-19.399-12.718-26.731-16.681V21.333C277.335,9.552,267.783,0,256.001,0
			s-21.333,9.552-21.333,21.333v29.533c-7.332,3.962-17.014,9.646-26.731,16.681c-29.449,21.314-44.381,44.046-44.381,67.562
			c0,16.223,4.289,32.214,12.405,46.24c2.126,3.676,5.257,6.561,8.929,8.397v44.923h-42.896c1.061-4.651,1.619-9.419,1.619-14.222
			c0-35.584-46.052-58.004-55.282-62.137c-5.547-2.483-11.888-2.483-17.437,0c-9.232,4.133-55.284,26.554-55.284,62.137
			c0,9.141,1.966,18.169,5.723,26.446v9.109v234.665c0,11.782,9.552,21.333,21.333,21.333h64v-21.333v-21.333v-42.664
			c0-11.782,9.552-21.333,21.333-21.333s21.333,9.552,21.333,21.333v42.664v21.333V512h42.667v-21.333v-21.333v-56.886
			c0-35.584,46.052-58.004,55.282-62.139c5.547-2.483,11.888-2.483,17.437,0c9.23,4.134,55.282,26.554,55.282,62.139v56.886v21.333
			V512h42.664v-21.333v-21.333v-42.664c0-11.782,9.552-21.333,21.333-21.333s21.333,9.552,21.333,21.333v42.664v21.333V512h64
			c11.782,0,21.333-9.552,21.333-21.333V256.001v-9.109c3.759-8.276,5.723-17.306,5.723-26.446
			C496.39,184.861,450.339,162.441,441.108,158.308z M143.089,356.424c-3.982,3.968-9.472,6.244-15.088,6.244
			c-5.618,0-11.109-2.276-15.09-6.244c-3.968-3.984-6.244-9.472-6.244-15.09s2.276-11.108,6.244-15.09
			c3.968-3.968,9.472-6.244,15.09-6.244c5.616,0,11.12,2.276,15.088,6.244c3.968,3.982,6.245,9.472,6.245,15.09
			C149.334,346.952,147.057,352.441,143.089,356.424z M399.091,356.424c-3.982,3.968-9.472,6.244-15.088,6.244
			c-5.618,0-11.122-2.276-15.09-6.244c-3.968-3.984-6.244-9.472-6.244-15.09s2.276-11.108,6.244-15.09
			c3.968-3.968,9.472-6.244,15.09-6.244c5.616,0,11.12,2.276,15.088,6.244c3.968,3.982,6.245,9.472,6.245,15.09
			C405.336,346.952,403.059,352.441,399.091,356.424z"/>
	</g>
</g>
</svg>